# xmcd
#
# Track frame offsets: 
#        150
#        16969
#        31205
#        49611
#        68252
#        89392
#        107836
#        126409
#        140664
#        160376
#        180617
#        194828
#
# Disc length: 2809 seconds
#
# Revision: 0
# Processed by: cddbd v1.5.2PL0 Copyright (c) Steve Scherf et al.
# Submitted via: ExactAudioCopy v0.99pb3
#
DISCID=a50af70c
DTITLE=Shelley King - Building a Fire
DYEAR=2014
DGENRE=Folk
TTITLE0=Building A Fire
TTITLE1=Grace
TTITLE2=The Ones You Don't See Coming
TTITLE3=Talkin' 'Bout The Weather
TTITLE4=I Know I've Been Changed
TTITLE5=Lost In You
TTITLE6=Things You Do
TTITLE7=The Real Thing
TTITLE8=When I Go Away
TTITLE9=1940's Eyes
TTITLE10=Hard Times Are No Match For Sweet Dreams
TTITLE11=Moonlight
EXTD=
EXTT0=
EXTT1=
EXTT2=
EXTT3=
EXTT4=
EXTT5=
EXTT6=
EXTT7=
EXTT8=
EXTT9=
EXTT10=
EXTT11=
PLAYORDER=
